<svg xmlns="http://www.w3.org/2000/svg" enable-background="new 0 0 1752.7 2377" viewBox="0 0 1752.7 2377"><path fill="#734c4c" d="M239.5,296.2c0,0-17.2-21.1-13.2-54.6c4-33.6,25.7-56.1,25.7-56.1s12.5-50.6,49.2-79.5s77.2-43.7,103.5-43.7
	c26.4,0,54.6,17.2,54.6,17.2s46.8-11.8,91.2,17.9S623,194.1,620,229.1c-3,35-230.8,146.6-290.8,130.2S239.5,296.2,239.5,296.2z"/><path fill="#fff" d="M1421.5,2078.5c0,0-14.3-3.4-2.7-15.8c11.6-12.3,48.6-22.7,59.7-32.3c11-9.6,28.1-10.3,37-7.6
	c8.9,2.7,53.5,51.5,55.5,54.2c2,2.7,60.4,61.1,90.6,95.4s49.3,70.6,44.5,100.8s-21.9,43.2-47.3,43.9c-25.4,0.7-42.5-33.7-60.2-43.3
	c-17.8-9.6-76.2-46.6-100.8-53.5c-24.7-6.9-42.6-12.3-41.9-32.8c0.7-20.5,10.3-41.2,8.3-50.8S1441.4,2085.3,1421.5,2078.5z"/><path fill="#fec3aa" d="M1392.7,2073l19.2-2.7c0,0,23.9,16.5,36.4,30.3c10.9,12,15.9,28.4,13.6,44.5c-2,13.1-10.9,33-6.2,42.6
	c4.7,9.6,6.2,13.1,6.2,13.1l-41.9,2C1420.1,2202.6,1414.6,2106.7,1392.7,2073z"/><path fill="#bfd7ff" d="M399.3,485.2c0,0-82.7,50.8-90.8,68.4c-8,17.6-84.5,219.6-84.5,219.6s22.5,45.9,29,78c6.5,32.1,4,41,4,41
	l-58.8,20.9c0,0,22.7,33,43.5,28.1s57.1-33,57.1-33s79.7-43.5,88.5-41.7c0,0,78,165.6,81.3,188.2c3.3,22.5,2.4,47.5,4,64.4
	c1.6,16.9,8,43.3-9.6,94.8c-17.6,51.5-36.3,154.5-35.4,166.5s2.6,25.1,22.9,29.5s126.6,11.5,190.2,7.5c63.5-4,198.6-8.9,239.6,3.3
	s143.1,43.3,168.1,36.1c25-7.2,37.9-29,38.6-85.3c0.7-56.4-7.2-114.2-15.2-146.3c-8-32.1-4.9-110.4-38.6-206.7
	c-32.3-91.8-46.8-169.8-46.8-218.8s-29.7-190.6-53.1-241.2s-70-126.3-160-131.9s-207.5-7.2-263.7,17.6
	C473.5,460,436.8,473.6,399.3,485.2z"/><path fill="#fec3aa" d="M585.8,445.1c0-1.4-0.1-2.9-0.7-4.3c-4.4-11.9-27.2-72.7-28.4-94.7c-1.1-21.9-25-73.4-33-90.9
	c-1.6-3.6-5-5.9-8.9-5.9c-8.2-0.3-23.5-1.4-37.6-5.7c-18.6-5.9-34.7-17.8-45.9-33.7c-8.5-12.8-23.4-20.4-40.6-16.5
	c-10.3,2.3-16.1,12.6-18.9,20.7c-1.9,4.9-7,7.6-12,6.5c-11.3-2.7-29.4-5.4-36.7-1c-10.3,6.2-18.9,26.5-22.4,60.2
	s11.3,64.7,11.3,67.1s-5-1.6-5-1.6s-27-24.8-36.9-29.1c-9.9-4.3-21.4-26.5-22.2-27.8c-0.9-1.3-10.3,25.2-14.1,38.6
	c-3.7,13.3-4.7,53.9,0.9,73.1c5.6,19.2,5.9,44.9,3.3,49.6c-2.6,4.7-77,145.6-77,145.6L52.6,796.4c-0.4,0.9-0.9,1.7-1,2.7
	c-1.7,8.7-9.6,53.3,5.9,73.4c17.1,22.2,28.7,42.3,96.2,43.6c52.9,1,86.2-14.2,98.1-20.8c3.3-1.7,5.3-5.2,5.3-8.9
	c0-12.8-1.3-44.6-14.3-71.3c-9.5-19.5-14.6-29.1-17.2-33.6c-1.4-2.7-1.7-5.9-0.6-8.7c9.6-24.2,53.3-133.8,60.2-152.9
	c7.6-21.4,38.4-124.1,42.3-135.2c2.2-6.2,3.9-12.6,5.2-19.1c0.3-1.3,0.9-2.4,1.6-3.6l5.2-7.9c3-4.6,9.2-6,13.9-3
	c0.3,0.1,0.6,0.3,0.7,0.6c13.1,10.3,37.3,29.1,49.2,35.6c16.8,9,35.6,19.2,50.2,15.8h0.4c12.6-3.3,16.8-2.4,17.6-1.1
	c0.9,1.3,8.9,11.8,5.4,13.5c-17.2,8.2-21.7,31.3-14.6,36.3c22.1,15.6,57.8,22.5,72.4,18.2c10.3-3,36.6-7.6,48.5-16.1
	c2.7-2-1.6-29.5-1.6-32.8v-16.9L585.8,445.1z"/><path fill="none" d="M586.6,507.5l-4.3-58.7l-1-0.7c0.1,14.6,0.4,35.4,0.6,56.6L586.6,507.5z"/><path fill="#fff" d="M582.3,587.9c0.3-0.9,0.1-29.3-0.1-61.8h-0.4L582.3,587.9z"/><path fill="#fff" d="M581.2,448.1c-0.1,0-0.1,0-0.1-0.1l0,0l0.4,56.6h0.3C581.7,483.5,581.4,462.7,581.2,448.1z"/><path fill="#fff" d="M581.5,504.6v21.7h0.4c0-7-0.1-14.2-0.3-21.4L581.5,504.6z"/><path d="M560.5,432.2c0,0,14.3,23.8,13.9,31.8c-0.4,8,6.2,58.2,7.3,62.2c1.1,4,4.2-81.2,4.2-81.2S567.6,441.2,560.5,432.2z"/><path d="M717.3,882.2L717.3,882.2z"/><path d="M716.1,882.2L716.1,882.2z"/><path d="M719.4,882.3L719.4,882.3z"/><path d="M716.8,882.2L716.8,882.2z"/><path d="M721.1,882.3L721.1,882.3z"/><path d="M720.1,882.3L720.1,882.3z"/><path d="M721.2,882.3L721.2,882.3z"/><path d="M765.4,894.7c2.3,0,43.3-28.1,57.7-53.9c0,0-65.4,42.5-101.8,41.6C721.2,882.3,725.4,894.7,765.4,894.7z"/><path d="M711.8,882.1L711.8,882.1z"/><path d="M720.5,882.3L720.5,882.3z"/><path d="M718.8,882.3L718.8,882.3z"/><path d="M825.3,836.6l0.7-1.3L825.3,836.6z"/><path d="M708.6,882.1L708.6,882.1z"/><path d="M826.1,835.3c0.4-0.9,0.9-1.7,1.4-2.4L826.1,835.3z"/><path d="M827.5,832.9l0.3-0.7L827.5,832.9z"/><path d="M823.5,839.9l1.9-3.3C824.6,838,823.9,839.2,823.5,839.9z"/><path d="M708.3,882.1L708.3,882.1z"/><path d="M707.3,882.1L707.3,882.1z"/><path d="M823,840.8l0.4-0.9L823,840.8z"/><path d="M706.2,882.1L706.2,882.1z"/><path d="M472.7,512.8c-8.2,5.2-14.5,13.9-18.2,22.8c-1.3,3.2-2.2,6.2-0.9,9.5c2.3,5.4,7.2,9.5,11.8,12.9
	c21.1,16.1,48.6,20.5,74.4,16.8c16.5-2.4,32.3-8,47.3-15.2c4.2-2,0.6-8.2-3.6-6.2c-27.5,13.2-59.2,20.7-89.2,11.5
	c-6.9-2.2-13.3-5.2-19.5-8.9c-3-1.9-5.9-4-8.5-6.5c-2.2-1.9-6.3-5-6.5-8c-0.1-3,3-7,4.4-9.5c3.2-5,6.9-9.9,11.9-13.1
	S476.6,510.3,472.7,512.8L472.7,512.8z"/><path d="M493,625.9c26,5.6,49.5-7.9,70.7-21.1c3.9-2.4,0.3-8.6-3.6-6.2c-19.4,12-41.4,25.5-65.1,20.4
	C490.5,618,488.6,624.9,493,625.9z"/><path fill="#fff" d="M1074.3,2131.3c-11.6-3.2-23.1-6.5-34.8-9.2c-11.8-2.7-26.4-6.7-39.2-6.5c0,0-17.4,0.3-30.4-11.3
	c-13.1-11.6-9.9-32.4-10.3-49c-0.4-16.6-7.7-31-22.2-47.9s-43.9-16.2-40.4-24.1c3.4-7.9,60.5-55.6,71.8-61s26.2-5.9,60.7,21.2
	c34.4,27.1,61.2,41,82.7,53.9s84.8,65.1,100.8,99.1c11.5,24.4,23.5,56.4-13.1,75c-36.6,18.6-62.7-17.8-89.3-26.7
	C1101.4,2141.9,1082.8,2133.5,1074.3,2131.3z"/><path d="M1075.3,2127.9c-21.1-5.6-42.3-12.5-64-15.2c-5.6-0.7-11.2-0.3-16.6-1c-8-1-15.5-4.3-21.8-9.3c-13.1-11.5-9.3-31.7-9.8-47
	c-0.6-18.6-10-34.4-21.7-48.3c-9.6-11.6-22.8-15.5-36.4-20.5c-1.7-0.6-3.3-1.4-4.9-2.3c-0.3-0.1-0.1,0.1,0,0.6
	c0.1,0.4,0.3-0.6,0.6-1c2.3-2.7,4.6-5.2,7.2-7.6c17.1-16.6,35.4-31.8,54.8-45.7c5.3-3.7,10.8-7.2,17.5-7.5
	c12.5-0.3,24.5,7.5,34.4,14.2s17.5,13.3,26.4,19.9c8.9,6.6,15.9,11.3,24.2,16.6c13.2,8.5,27,16.2,40.6,24.2
	c22.5,13.3,42.7,30.8,61.5,48.8c18.8,17.9,39.7,40.4,49.3,67.7c4.3,12.5,6.9,27-0.6,38.9c-7.5,11.9-26.7,21.8-42.3,19.6
	c-15.6-2.2-27.8-11.8-40.2-19.8c-5.9-3.9-11.9-7.3-18.4-10.2c-6.6-2.7-13.3-5-19.8-7.6C1088.9,2132.5,1082.2,2129.9,1075.3,2127.9
	c-4.4-1.3-6.3,5.6-1.9,6.9c7.5,2.3,14.8,5,21.9,8.2c6.9,2.7,14.2,4.9,20.8,8.2c13.9,6.9,25.8,17.5,40,23.8c14.2,6.3,31.7,7.2,46.8-1
	c15.1-8.2,24.1-19.6,25.1-35.7s-4.9-28.1-10.8-40.7s-14.6-23.9-23.9-34.4c-20.8-23.1-44.2-43.9-69.4-62
	c-10.6-7.5-21.9-13.6-33.1-20.2c-16.8-9.8-33.1-20.5-48.8-32c-15.1-11.2-29.4-24.4-47.5-30.5c-8.9-3.2-18.1-3.4-26.7,0.4
	c-8.6,3.9-15.3,10.3-22.4,15.8c-10.8,8.5-21.2,17.2-31.6,26.2c-4.2,3.9-8.5,7.7-12.5,11.8c-2.9,2.3-5.2,5.2-7.2,8.2
	c-6,10,11.5,13.5,17.5,15.6c6,2.2,14.9,5.7,20.5,11.2c7.6,7.5,13.8,16.2,18.4,25.8c3.9,8.5,5.6,17.6,5.3,26.8c0,8.7-0.4,17.5,1,26.1
	c2.9,17.5,16.5,28.5,33.6,31.8c5.2,1,10,0.9,15.2,1.1c11,0.7,21.9,3.7,32.7,6.3c10.8,2.6,23.4,6,35,9.2
	C1077.9,2135.9,1079.7,2129,1075.3,2127.9z"/><path d="M1208.7,2140.9c-8.6-26.1-25-48.9-44-68.6c-10.2-10.6-20.9-20.4-32.6-29.4c-10.2-8-20.8-16.3-32-22.8
	c-11.2-6.5-27.2-13.2-38.9-22.5c-3.7-3-7-6.6-10.8-9.8c-7-6.2-14.2-12.2-21.5-17.9c-7.3-5.7-19.1-14.8-29.3-21.4
	c-10.2-6.6-17.8-11-27.8-14.1c-4.4-1.3-6.3,5.6-1.9,6.9c8.3,2.4,16.1,7,23.4,11.6s17.8,12,26.1,18.5c12.2,9.5,23.9,19.4,35.1,29.7
	c4.9,4.6,10.9,7.9,16.6,11.2c5.7,3.3,14.5,8.2,21.8,12c7.9,4.4,15.3,9.5,22.5,14.9c11.9,8.6,23.1,17.9,33.8,28
	c22.4,21.1,42.6,46,52.3,75.6C1203.2,2147.2,1210.3,2145.4,1208.7,2140.9L1208.7,2140.9z"/><path fill="#a096cf" d="M1419.5,2173.1c-6.2-32.1-22.7-95.2-22.7-95.2s-2-8.9-15.1-14.5c-13.1-5.6-100.1-4-100.1-4l-314.1,22.5
	l8.9-28.1l27.4-135.1c0,0,27.4-218,37-283.8s0-172.1-2.7-174.2c-2.7-2.2-36.3-19.2-87.8-29.4c-51.5-10.2-117.3-16.5-146-16.5
	c-28.7,0-216.7,2.7-270.9,0.7s-83-5.4-83-5.4l-22.5,52.1c0,0-92.6,220.1-117.3,265.3c-24.7,45.2-67.8,207.8-78.2,236.6
	c-10.3,28.8-15.1,80.9-0.7,120c14.3,39.2,54.9,86.3,137.8,99.4c82.9,13.1,268.2-22.7,268.2-22.7c21.9,77.6,52.8,86.5,105.6,113.2
	c52.8,26.7,174.8,22.7,212.5,15.2s234.6-33,272.9-44s111.1-9.5,148.1-13.6c37-4.2,43.9-8.3,43.9-8.3S1425.7,2205.3,1419.5,2173.1z
	 M630.9,1934.1l-95.8-7.7l118-189L630.9,1934.1z"/><path d="M571.2,365.2c5.9,16.9,12.2,34.6,22.1,49.6c6.6,10,15.6,19.6,28.4,20.4c4.6,0.3,4.6-6.9,0-7.2
	c-10.9-0.6-18.4-10.6-23.7-19.1c-8.7-14.1-14.5-30-19.9-45.6C576.7,359,569.8,360.9,571.2,365.2L571.2,365.2z"/><path d="M544.1,403.2c-1.1,4.9-2.9,9.8-5,14.3c-6.3,14.3-14.5,27.8-23.9,40.2c-17.1,22.9-39.6,44.5-70.3,42.6
	c-10.6-0.6-21.2-5.9-30.5-10.6c-10.5-5.6-20.8-11.6-30.7-18.2c-19.5-13.1-38-29.4-48.2-50.9c-8-16.9-12.2-35.7-18.1-53.5
	c-4.4-13.3-10.8-25.7-17.2-38.1c-2.2-4-8.3-0.4-6.2,3.6c6,11.6,11.9,23.2,16.2,35.6c5.6,16.5,9.6,33.6,16.2,49.6
	c9.8,24.1,28.7,43,49.9,57.5c9.9,6.6,20.1,12.9,30.5,18.6c10.5,5.7,21.4,11,32.8,13.1c28.4,4.9,53.5-12.2,71.3-32.6
	c12.9-14.8,23.8-31.1,32.4-48.8c3-6.5,6.2-13.5,7.6-20.5C552,400.6,545.1,398.6,544.1,403.2L544.1,403.2z"/><path d="M544.4,299.4c3.6-12.2,14.1-29.8,29.4-21.8c10.5,5.6,16.3,18.5,18.1,29.7c1.7,11.2-1,25.2-6.7,36.4s-14.5,24.2-26.8,29.7
	c-4.2,1.9-0.6,8,3.6,6.2c11.6-5,19.4-15.8,25.8-26.2s11.2-22.4,11.8-35c0.7-11.5-2.2-22.9-8-32.8c-6-9.5-15.8-18.2-27.7-16.6
	c-14.8,1.9-22.5,15.8-26.2,28.7C536.2,302,543.1,303.8,544.4,299.4z"/><path d="M574.8,292.3c-9-0.1-13.6,8.9-16.6,16.2c-3.3,7.7-5,16.1-5.4,24.5c-0.1,4.6,7,4.6,7.2,0c0.3-6.9,1.7-13.6,4.2-20.1
	c1.1-3,2.6-6,4.2-8.9c1.6-2.3,3.6-4.6,6.6-4.6S579.4,292.5,574.8,292.3L574.8,292.3z"/><path d="M560.3,320.3c0.7,0,1.4,0.3,1.9,0.7c0.7,0.6,1.3,1.3,1.9,2l0.7,1.4c0.1,0.1,0.3,0.7,0.1,0.3c0.1,0.3,0.3,0.6,0.3,0.9
	l0.4,1.6c0.1,0.3,0.1,0.6,0.1,0.9c0.1,0.6,0-0.9,0.1,0.3c0,1,0,2.2,0,3.2c0,0-0.1,1,0,0.6c0.1-0.4-0.1,0.6-0.1,0.6l-0.4,1.6
	c0,0.3-0.1,0.6-0.3,0.9v0.6l-0.3,0.6c-0.1,0.1-0.1,0.4-0.3,0.6c-0.3,0.6-0.6,1.1-1,1.6c0,0.1-0.3,0.4,0,0.1l-0.7,0.7
	c-1.4,1.4-1.4,3.7,0,5.2c1.4,1.4,3.6,1.4,5,0c4.3-4.9,6.3-11.3,5.2-17.8c-0.9-6.2-5.4-13.5-12.5-13.5c-2,0.1-3.4,1.6-3.6,3.6
	c-0.1,1.9,1.4,3.4,3.3,3.6C560.3,320.3,560.3,320.3,560.3,320.3L560.3,320.3z"/><path d="M377.7,353.6l-2,18.4c-0.7,5.9-1.9,11.9-2.2,17.9c-0.4,10.5,10,18.1,18.8,21.9c4.2,1.9,7.7-4.3,3.6-6.2
	c-4.2-1.7-7.9-4.3-11.2-7.5c-1.7-1.4-3.2-3.4-3.9-5.6c-0.3-2.3-0.1-4.6,0.3-6.7c1.3-10.8,2.4-21.5,3.7-32.3
	C385.5,349,378.3,349,377.7,353.6L377.7,353.6z"/><path d="M352.5,351.3c1.3,0.7,2.4,1.7,3.3,3c2,2.9,3.4,6,4.2,9.3c0.4,1.4,0.6,3,0.3,4.4c-0.3,1.4-1.1,2.7-2.4,3.4
	c-2,0.7-4.2,0.1-5.7-1.3c-2.2-1.7-3.6-4-4.3-6.6c-0.7-2.6-1.1-5.3-1-8c0-1,0.1-1.9,0.6-2.7c0.6-0.9,1.4-1.6,2.4-2
	C350.6,350.6,351.6,350.9,352.5,351.3z"/><path d="M351.1,353.6l1.3,0.7l0.6,0.7l0.4,0.4c0.1,0.1,0.1,0.3,0,0.1c1,1.1,1.9,2.6,2.4,4c0.7,1.4,1.1,2.9,1.6,4.3
	c0.4,1.4,0.4,2.9,0.1,4.3c-0.3,0.7-1.1,1.1-1.9,1c-1-0.3-2-0.9-2.7-1.7c-1.9-2.2-3-4.7-3.3-7.6c-0.1-1-0.1-2.2-0.1-3.2
	c-0.1-0.9,0-1.6,0.1-2.4c0-0.1,0.4-0.6,0.1-0.3c-0.3,0.3,0.1-0.1,0.3-0.3s-0.3,0.3,0.1,0c0.4-0.3,0.4-0.3,0.3-0.3l1.3,0.4
	c1.4,0.3,2.9-0.4,3.3-1.9c0.4-1.4-0.4-2.9-1.9-3.3c-2.4-1-5.2-0.4-7,1.4c-1.7,1.6-2,3.9-2,6.2c0,4.6,0.7,9.5,3.6,13.2
	c2.9,3.7,7.6,6.9,11.9,4c4.3-2.9,3.7-8.6,2.3-13.1c-0.9-2.4-2-4.7-3.4-6.9c-1.1-2-2.7-3.6-4.7-4.7c-1.3-0.6-2.9-0.1-3.6,1
	C349.5,351.1,349.8,352.7,351.1,353.6z"/><path d="M443.9,314.4c1.3,0.7,2.4,1.9,3.3,3.2c2,2.7,3.4,6,4.3,9.3c0.3,1.4,0.4,2.9,0.1,4.3c-0.3,1.4-1.1,2.7-2.4,3.6
	c-2,0.7-4.2,0.1-5.7-1.3c-2.2-1.7-3.6-4.2-4.3-6.7c-0.7-2.6-1-5.2-1-7.9c0-1,0.3-1.9,0.6-2.7C439.7,314.3,442,313.4,443.9,314.4
	L443.9,314.4z"/><path d="M442.6,316.7c0.4,0.1,0.9,0.4,1.1,0.9l0.6,0.7l0.4,0.4l0,0c1,1.3,1.9,2.7,2.4,4.2c0.7,1.4,1.1,2.9,1.6,4.3
	c0.4,1.3,0.4,2.7,0.1,4.2c-0.1,0.7-1,1.1-1.7,1c-1.1-0.1-2.2-0.7-2.9-1.6c-1.9-2.2-3-4.9-3.3-7.7c0-1-0.1-2-0.1-3
	c-0.1-0.9,0-1.7,0.1-2.6h0.1l0.3-0.3c0.3-0.3-0.3,0.1,0.1,0l0.3-0.3c0.3-0.1,1,0.1,1.3,0.3c1.3,0.4,2.9-0.3,3.3-1.7v-0.1
	c0.4-1.4-0.4-2.9-1.9-3.3c-2.4-1-5.2-0.4-7,1.4c-1.4,1.7-2.3,4-2,6.3c0,4.6,0.7,9.5,3.6,13.2s7.6,6.9,11.9,4s3.7-8.7,2.3-13.1
	c-0.9-2.4-2-4.7-3.4-6.9c-1.1-2-2.7-3.6-4.7-4.7c-1.3-0.7-2.9-0.3-3.6,0.9c0,0,0,0,0,0.1c-0.7,1.1-0.3,2.6,0.9,3.3
	C442.4,316.7,442.6,316.7,442.6,316.7z"/><path d="M351.2,301.1c2.7-0.9,4.3-3.7,3.4-6.5l0,0c-0.4-1.3-1.4-2.3-2.9-2.6c-1.4-0.1-2.9,0.4-3.6,1.7
	c-4.7,10.6-13.2,19.2-23.8,24.2c-1.6,1-2.2,3.2-1.3,4.9c1,1.7,3.2,2.3,4.9,1.3c11.6-5.6,20.9-15.1,26.4-26.8l-6.6-0.9
	c-0.1-1,0.6-2,1.6-2.3c-1.9,0.4-3,2.4-2.6,4.3C347.3,300.2,349.3,301.8,351.2,301.1L351.2,301.1z"/><path d="M408.3,281.6l19.5,2.4c5.7,0.7,11.8,0.6,16.9-2.6c5.2-3.2,0.3-8.6-3.7-6.2c-4,2.4-9.6,2.2-14.3,1.6l-18.4-2.4
	c-1.9-0.3-3.6,1.9-3.6,3.6C404.8,280,406.3,281.4,408.3,281.6z"/><path d="M243.8,295.1c-8.7-12.2-14.3-26.1-14.8-41.3c-0.1-12,2.2-24.1,6.6-35.3c3.3-8.6,7.7-16.8,12.9-24.4
	c3.2-4.6,5.4-6.7,7.3-12.3c16.5-50.2,61.5-93.5,112-109.1c22.8-7,49.5-8.9,71.8,1.1c4.4,2,8.7,4.4,12.6,7.5c3,2.4,6.3,1.1,9.9,0.7
	c26.2-3.9,55.2,0.4,78.9,14.1c18.9,10.8,34,27,45.3,45.5c7.6,12.5,12.9,25.8,18.2,39.3c-0.3-0.7,0.3,0.7,0.4,1.3
	c0.1,0.6,1.6,4,2.3,6c2.2,5.9,3.9,11.9,5.2,18.1c1.9,7.3,2.6,14.8,2.4,22.2c0,4.6,7.2,4.6,7.2,0c0.6-21.7-7.5-42.7-15.6-62.5
	s-20.7-41.4-37.3-57.5c-22.8-21.8-52.9-34.3-84.5-34.8c-10-0.3-20.1,0.6-30,2.4l3.4,1c-11.2-10.8-28.8-15.3-43.7-16.8
	c-30.1-2.7-60.4,7.2-85.9,22.8s-50.6,39.9-66.5,67.5c-4,7.2-7.6,14.6-10.6,22.4c-0.7,2-1.4,3.9-2,5.7s-1.3,4.7-0.9,3.6
	c-0.1,0.4-0.4,0.9-0.9,1.1c-4.7,6.7-9.5,13.2-13.2,20.5c-7,13.1-11.2,27.5-12.5,42.3c-1,18.8,4.4,37.3,15.6,52.5
	C240.2,302.4,246.4,298.8,243.8,295.1z"/><path d="M471.7,497.4h-0.1l3.2,1.7h-0.1l0.6,1.9v0.7l-0.9,1.6l0,0l-1.6,1h0.1l-3.4-0.9c-0.4-0.4-0.4-0.4-0.1,0l0.4,0.7
	c0.3,0.4,0.6,0.9,0.7,1.3l1.4,2.4c0.9,1.7,1.7,3.3,2.4,5c1.4,3.3,2.7,6.9,3.9,10.3c0.7,1.9,2.7,2.7,4.6,2c1.6-0.6,2.6-2.3,2.3-3.9
	c-1.7-5.4-3.7-10.8-6.3-15.8l-1.9-3.4c-0.7-1.3-1.4-2.6-2.4-3.7c-1.4-1.4-3.9-1.3-5.3,0.1c-0.4,0.4-0.7,1-0.9,1.6
	c-0.6,2,0.6,4,2.6,4.6c0.3,0.1,0.7,0.1,1,0.1c2,0.4,3.9-0.9,4.2-2.9c0.4-2-0.9-3.9-2.9-4.2c-0.4-0.1-1-0.1-1.4,0V497.4z"/><path d="M540.8,422.1c5.4-12.3-11.8,33.8-15.6,46.9s-14.1,22.4-23.7,31.8c-9.6,9.5-24.2,10.3-24.2,10.3l-2.9-11.5
	C474.4,499.7,514.1,482.5,540.8,422.1z"/><path fill="#fec3aa" d="M822.3,774.1c-18.9-44.9-76.4-92.2-77.9-93.6L659.3,427c0,0-2.6-59.1-10.6-109.1c-8-50.1-22.4-85.6-40.3-104.8
	s-33-14.6-33-14.6s-19.2-14.5-23.1-11.9c-1.9,1.3-3.9,2.4-6,3.4c0,0-11.9-8.6-16.6-4.7c-4.7,3.9-5.6,11.5-5.6,11.5s-9-11-18.8-5
	c-9.8,6-2.2,21.8-0.9,23.9c1.3,2.2,16.6,33.8,16.6,33.8l8.2,17.1c0,0-10.3-20.1-21.8-10.8c-11.5,9.3-5.6,22.7-1.7,33.4
	c3.9,10.8,18.8,44.9,20.5,53.5c1.7,8.6-1.7,45,9.5,62.5c11.2,17.5,39.6,38.3,45.5,42.7h0.1l4,75.7c0,0,6.9,199.3,8.9,222.1
	c2,22.8,29.5,107,69.4,128.8c39.9,21.8,55.4,12,89.9,2.2c40.6-11.8,87.3-53.6,87.3-53.6S841.1,819.1,822.3,774.1z"/><path d="M578.1,443.2c-11.9-9.8-25.2-18.6-34-31.7c-5.9-8.9-9-19.2-10.8-29.7s-0.9-21.1-2.3-31.6c-3-21.2-14.5-40.3-22.5-59.9
	c-2.2-4.7-3.6-9.8-4.6-14.9c-0.6-4.2-1.3-10.6,1.4-14.2s6.9-2.7,10-1.4c5.3,2,8.2,8,11,12.6c10.9,16.6,19.4,34.8,25.2,53.8
	c1.4,4.4,8.3,2.6,6.9-1.9c-5.7-18.6-13.9-36.3-24.2-52.8c-5.4-8.9-10.8-18.9-22.2-19.6c-9-0.7-14.6,5.3-15.6,14.1
	c-1.3,12,3.9,23.8,8.7,34.6c4.9,10.8,10,21.9,14.2,33.1c1.9,5,3.2,10.2,4.2,15.5c1.3,7,0.9,13.9,1.3,20.9c0.6,11.5,2.9,22.9,7,33.7
	c7.9,19.6,25.4,31.6,41.2,44.5C576.7,451.1,581.7,446.1,578.1,443.2L578.1,443.2z"/><path d="M580.1,443.1c0,52.9,0.1,105.8,1.9,158.8c0.9,26.1,2.2,52.2,3.7,78.3c1.3,23.8,2.7,47.6,7.6,71
	c9.3,44.9,26.2,90.6,63.1,120.2c16.2,12.9,36.4,22.2,57.7,20.7c21.2-1.6,43.9-8.5,63.8-17.9c23.4-11.2,46.2-27.4,62.7-47.5l0.9-1
	c2.7-3.6-2.3-8.7-5.2-5.2c-12.5,16.2-30.1,29.4-47.6,39.7c-17.8,10.6-37.3,18.1-57.7,22.1c-10.8,2.2-21.8,3.9-32.7,1.7
	c-10-2-19.6-5.9-28.3-11.6c-18.4-11.8-33-29.1-43.7-47.9c-10.8-18.8-18.5-43.2-23.9-65.7s-7.5-43.9-8.7-66.1c-1.7-26-3-51.8-4-77.7
	c-1.9-50.1-2.3-100.1-2.3-150.3v-21.5C587.3,438.5,580.1,438.5,580.1,443.1z"/><path d="M534.6,269.5c-3.6-10.3-7.9-20.4-12.8-30.1c-5.9-11.2-14.1-21.4-18.2-33.3c-1.7-5-3.3-10.8,3.3-11.9
	c6.6-1.1,13.5,4.6,17.6,9.9c8.5,11,15.6,23.2,22.5,35.4c6.9,12.2,15.5,29,22.7,43.7c2,4.2,8.2,0.4,6.2-3.7
	c-7.3-14.9-14.8-29.8-23.1-44.3c-4.2-7.5-8.6-14.6-13.2-21.8c-4.6-7.2-8-12.6-13.2-17.9c-5.2-5.3-10.9-8.7-17.9-8.6
	c-7,0.1-11,2.4-12.9,7.7s0.3,11.6,2.4,16.6c2.6,6,5.6,11.8,9.2,17.2c8.3,13.5,15.2,28,20.5,42.9
	C529.3,275.7,536.2,273.8,534.6,269.5L534.6,269.5z"/><path d="M531.3,198.6c-1.9-2.7-6-8.6-1.4-10.9c4.6-2.3,10.2,3.6,13.1,6.5c7.7,7.5,14.6,15.8,20.5,24.8
	c12.9,19.4,21.2,41.3,28.7,63.1c1.6,4.3,8.5,2.4,6.9-1.9c-9-26.7-19.5-53.2-37.1-75.6c-4.2-5.3-8.6-10.3-13.3-15.1
	c-4.7-4.6-10.3-9.8-17.5-9.5c-4,0.3-7.5,2.6-9.3,6.2c-2.7,5.4,0.3,11.5,3.4,15.9C528.3,206.6,534.1,202.3,531.3,198.6z"/><path d="M577.4,201.4c3.6-4.6,12.5,1.4,15.9,3.7c5.3,3.4,10,7.7,13.9,12.8c6.2,8,11.3,16.9,15.3,26.2c9.6,22.1,15.8,45.7,20.7,69.1
	c6.6,31.3,10.5,63,11.6,94.8c0.1,4.3,0.1,8.6,0.3,12.9c0.1,4.3-0.4,5.4,0.1,7.9c0.1,0.6,0.4,1.3,0.7,1.9c1.3,3.4,2.7,7,4.2,10.6
	c13.3,34.4,26.2,69,38.4,103.8c7,19.9,13.8,40,19.9,60.4c6.2,20.4,11.8,45.6,17.9,68.3c10.2,38.4,22.9,76,36,113.6
	c0.9,2.4,1.7,4.9,2.4,7.5c0.7,2.6,8.3,2.4,7-2c-4.3-13.2-9.3-26.2-13.8-39.4c-7.5-21.7-14.3-43.7-20.5-65.8
	c-7-25.1-12.6-50.6-19.8-75.6c-5.9-20.5-12.6-40.6-19.6-60.7c-12.8-36.9-26.4-73.4-40.4-109.9l-4.6-12c-0.4-0.7-0.7-1.4-1-2.3
	c-0.1-1.7,0-3.6,0.1-5.3c-0.1-4.3-0.1-8.6-0.3-12.9c-1-32.6-5-65-11.8-96.8c-5-24.2-11.5-48.5-21.2-71.1
	c-4.3-9.6-9.6-18.8-15.9-27.1c-6.9-8.9-17.5-18.5-29-20.8c-4.9-1.1-9.9,0.7-12.9,4.7C568.5,201.6,574.7,205.1,577.4,201.4
	L577.4,201.4z"/><path d="M549.3,193.4c7.7-6.6,20.9,7.2,26,12.5c6.7,7.3,12.8,15.2,17.9,23.7c9.8,15.8,18.1,32.3,25,49.5c1.7,4.2,8.7,2.4,6.9-1.9
	c-8.2-20.1-17.8-39.9-30-57.8c-6.2-9-13.2-17.9-21.5-25c-8.3-7-19.6-14.3-29.3-6.2C540.7,191.2,545.8,196.3,549.3,193.4L549.3,193.4
	z"/><path d="M500.5,1329.9c6.3,2.2,12.8,3.6,19.4,4.3c8.9,1.1,17.9,1.9,26.8,2.3c17.9,0.9,35.9,1,53.8,0.1c22.9-1,46-4.4,68.8-8.2
	c22.7-3.6,45.2-8.5,67.3-14.6c35.1-9.8,68.7-23.8,100.2-42c26.1-15.3,50.1-33.8,72.7-53.6s43.2-39.4,65.5-58.2l8.9-7.3
	c3.4-3-1.6-8-5.2-5.2c-22.4,18.4-43.5,38.3-65.1,57.5c-21.7,19.2-44.6,38.1-69.4,53.9c-29.4,18.4-61,33-94.1,43.3
	c-45.5,14.5-92.9,22.2-140.3,26.7c-15.6,1.1-31.4,1.6-47.2,1c-17.5-0.4-35.4-0.7-52.5-4.6c-2.7-0.6-5.3-1.3-7.9-2.3
	C498.2,1321.2,496.3,1328.2,500.5,1329.9L500.5,1329.9z"/><path d="M521.6,1261.1c60.2,10.5,121.6,12.9,182.4,7c17.1-1.6,34-3.9,50.8-6.7c4.6-0.9,2.7-7.7-1.9-7c-58.8,10-118.6,12.3-178,6.7
	c-17.2-1.6-34.4-3.9-51.5-6.9C519,1253.5,517,1260.4,521.6,1261.1L521.6,1261.1z"/><path d="M445.6,1411.4c-34,80.9-70.8,160.6-105.7,241.2s-67.8,161.6-92.8,245.5c-5.4,18.5-10.3,37.1-15.5,55.8
	c-4.2,15.3-8.3,30.7-10.8,46.5c-5.7,37.3,1,73.7,17.5,107.6c14.5,29.7,41.4,49,71.4,61.2c13.3,5.4,27.1,9.9,41.2,13.3
	c20.8,4.9,42.3,6.2,63.7,6.2c21.4,0,43.3-1.7,65-3.2c21.7-1.4,41-2.3,61.4-4.7c30.5-3.6,60.8-8.3,90.9-14.5l5-1
	c4.4-1,2.6-7.9-1.9-6.9c-21.5,4.6-43.3,8.2-65.1,11.5c-40.6,5.9-81.3,8.3-122.2,10.5c-20.9,1.1-42,1.7-63,0
	c-18.5-1.6-36.7-5.3-54.2-11.2c-28.3-9.2-56.1-22.7-74.7-46.6c-12.3-15.6-19.9-35.6-25-54.8c-4.4-16.6-6-33.8-4.9-51.1
	c1.1-15.9,4.7-31.6,8.7-47c4-15.5,9.2-33.8,13.8-50.8c23.2-82.6,54.8-162.6,88.3-241.4s70-157.6,104-236.9l11.6-27.4
	C454.2,1409,447.3,1407.2,445.6,1411.4L445.6,1411.4z"/><path d="M956.6,2081.3c1.9,0.4,3.9,0.6,5.9,0.6c9.3,0.4,18.8,0.4,28.1,0.4c36.3,0,72.7-0.9,109-3.6c36.3-2.7,74.1-6.3,111.1-9.5
	c37-3.2,72.4-6,108.7-6.7c13.6-0.6,27.4-0.3,41,0.9c7.7,0.7,17.4,1.6,23.8,5.3c2.6,1.4,5,4.7,6.9,8c3.2,5.6,5.7,11.3,7.6,17.5
	c4.9,15.9,8.7,32.1,11.2,48.5c2.7,15.9,4.7,31.8,6.3,47.9c0.9,9.3,2.3,19.2,1.4,28.7c-0.1,1,0.3-0.6,0,0.3c-0.3,0.9,0.3-0.1-0.4,0.7
	l-0.7,0.7c-0.4,0.4-0.9,0.7-1.4,1c-4,2-8.5,3.4-12.9,4.2c-18.6,4-38.3,4.3-57.4,4.7c-12.6,0.3-25.1,0.1-37.6,1.3
	c-12.5,1.1-23.4,2.7-35.1,4.3c-31.8,4.6-63.7,9.8-95.5,15.1c-38.3,6.2-76.6,12.5-115,18.4c-38.4,5.9-77.2,11.2-115.9,15.2
	c-32.6,3.6-65.4,6.3-98.2,5.9c-41.7-0.6-84.5-8.6-121.9-27.7c-16.9-8.5-32.3-19.5-45.6-32.8c-12.2-12.5-20.9-26.7-27.8-42.6
	c-20.8-48.6-25.7-103-24.7-155.3c0.7-39.4,5.3-78.6,10.2-117.6c5.6-45.2,11.6-90.1,16.8-135.2c2.6-22.1,4.9-44.3,6.7-66.5
	c1.4-15.8,2-31.7,3.3-47.5c1.9-21.9,0.4-45.2-5.4-66.5s-15.5-40.3-25.8-58.9c-5.2-9.3-10.6-18.5-16.5-27.4c-2.6-3.7-8.7-0.1-6.2,3.7
	c6.5,9.6,12.3,19.6,17.8,29.8c10.5,19.1,20.4,39.2,25.2,60.5c4.4,20.5,5.7,41.6,3.4,62.5c-0.3,2-0.1-0.7-0.1,1.1l-0.4,7.5
	c-0.1,4.7-0.4,9.6-0.9,14.5c-0.6,10.3-1.4,20.7-2.4,31c-4.2,46.5-10,92.8-15.9,139.1c-5.2,39.6-10.6,79.2-14.2,118.9
	c-4.4,49.3-4.7,100,4.6,148.7c7.7,40.9,21.9,82.5,53.3,111.1c31.4,28.7,74.7,45.5,117.2,52.5c33.3,5.4,66.7,4.9,100.2,2.6
	c37.3-2.4,74.4-6.9,111.6-11.9c39.9-5.4,79.6-11.8,119.3-18.1c35.9-5.9,71.7-11.9,107.7-17.5c25.2-4,50.8-8.2,76.3-10.2
	c16.2-1.3,32.6-0.6,48.9-1.3s33.3-1.3,48.8-6.2c6.5-1.9,13.5-4.9,13.9-12.5c0.4-7.6-0.7-20.1-1.6-29.8c-3.2-32.7-7.5-66.5-18.1-97.8
	c-3.3-9.5-7.5-22.2-16.2-28.1s-16.2-5.6-24.1-6.5c-30.1-3.4-61.2-1.1-91.4,0.7c-38.9,2.4-77.7,6-116.5,9.5
	c-33.3,2.9-66.5,6.2-99.8,7.3c-21.7,0.7-43.3,1-65,1c-9.8,0-19.6,0.1-29.5-0.4l-4.3-0.3l0,0C954.1,2072.8,952.3,2079.7,956.6,2081.3
	L956.6,2081.3z"/><path d="M1035.4,1460.7c6.2,25.5,5.9,52.9,5.6,78.9c-0.4,39.9-3.3,79.7-6.9,119.5c-4.2,46.8-9.6,93.2-15.9,139.7
	c-6.3,46.5-13.9,93.9-22.2,140.7c-7.3,41.2-15.3,82.2-25,122.9c-1,4.4-2.2,8.9-3.2,13.2c-1,4.3,5.7,6.5,6.9,2
	c9.8-39.9,17.9-80.2,25.4-120.5c8.5-46.9,15.9-93.9,22.7-140.8c6.7-46.9,12.3-94.1,17.1-141.5c4-40.7,7.2-81.7,8-122.8
	c0.7-28.5,1.1-57.8-4.2-85.9c-0.4-2.4-0.9-4.9-1.4-7.2C1041.7,1456.6,1034.3,1456.3,1035.4,1460.7L1035.4,1460.7z"/><path d="M653.8,1723.3c-17.1,38-40.3,73.6-62.8,108.6c-22.5,35-48.5,73.3-73.1,109.6c-7.5,11.3-15.3,22.4-22.2,34
	c-2.4,4,3.7,7.6,6.2,3.7c5.7-9.9,12.3-19.2,18.6-28.7c11-16.3,22.1-32.4,33-48.8c26.1-38.9,52.2-78,76.2-118.3
	c10.9-18.4,21.7-37,30.4-56.5C661.8,1722.7,655.7,1719.2,653.8,1723.3L653.8,1723.3z"/><path d="M534.5,1927.8c14.5,2,29.3,2.7,43.9,4c14.6,1.3,33.3,2.2,48.9,6.5c4.4,1.3,6.3-5.7,1.9-6.9c-15.9-4.3-33.4-5-49.8-6.6
	s-30.1-2.2-44.9-4.2C529.9,1920.1,529.9,1927.2,534.5,1927.8z"/><path d="M752.5,564.1h-0.3c-1.6-0.4-3.2,0.3-4,1.6c-0.9,1.3-0.9,3,0,4.3c0.9,1.3,2.4,2,4,1.7c3-0.7,4.4-4,6-6.5l5.9-8.2
	c4-5.6,8.2-10.9,12.5-16.2c8.6-10.3,17.8-20.2,27.4-29.7c3.4-3.2-1.7-8.2-5-5c-9.3,9-18.1,18.5-26.4,28.4c-4.2,4.9-8,9.9-11.8,15.1
	l-5.7,7.7l-2.7,3.9l-1.1,1.9c-0.1,0.1-1.7,1.9-0.9,1.7l4,1.6v2.9l-4,1.7h0.3C755.1,572,757.1,565.1,752.5,564.1L752.5,564.1z"/><path d="M831.6,2103.1c26.1-10.2,53.6-15.6,81.6-16.2c4.6,0,4.6-7.2,0-7.2c-28.5,0.6-56.8,6.2-83.5,16.5
	C825.6,2097.9,827.5,2104.8,831.6,2103.1z"/><path d="M253.8,888.2c-9,7.3-21.1,11-32.3,13.8c-13.9,3.3-28.1,5.6-42.3,6.9c-22.5,2-46.9,3.9-69.1-1.6
	c-27.2-6.6-49.5-24.7-56.4-52.5c-4.7-18.9-2.7-39.2,3.7-57.5c4.4-12.5,11-24.2,17.1-36c29.1-57.2,61.2-113,92.2-169.4
	c23.5-42.7,47.9-85.3,69.6-129.1c3.7-7.5,5.9-15.6,6.3-23.9c0.7-8.5,0.3-17.1-1.3-25.5c-1.7-8.9-5.3-17.4-6.9-26.5
	c-5-30.1,0.6-63,11.6-91.1c1-3,2.4-5.9,4.2-8.6c2.4-4-3.9-7.6-6.3-3.7c-4.9,8-7.6,17.9-10.2,26.8c-4.4,15.5-7.2,31.6-7.9,47.6
	c-0.4,9.2-0.1,18.4,1.1,27.4c1.3,9.3,4.3,17.6,6.7,26.7c3.4,13.2,3.7,30.8-1.7,43.5c-6.5,15.1-15.1,29.4-22.8,43.7
	c-14.1,26-28.1,51.9-42.3,77.9c-32,58.1-65.3,115.7-95.5,174.8c-6,11.6-12.3,23.2-17.5,35.1c-7.7,18.2-11.5,38.1-9.2,57.9
	c3.4,29.3,21.1,52.9,48.3,64.2c22.4,9.3,46.6,9.2,70.3,7.9c27.2-1.4,56.5-4.2,81.7-15.3c5-2.3,9.6-5,13.9-8.5
	C262.4,890.4,257.4,885.4,253.8,888.2L253.8,888.2z"/><path d="M340,443.4c-0.6,7.9-4,12.6-9.2,18.1c-5.2,5.4-6.2,10.9-7.7,18.1s-3.6,18.2-6,27.2c-5.4,20.7-12.3,41-19.2,61.4
	c-18.2,54.1-37.7,107.7-58.5,160.9c-7.7,19.6-15.2,39.7-24.7,58.7c-2,4.2,4.2,7.7,6.2,3.6c8.2-16.3,14.8-33.6,21.5-50.5
	c10.3-26,20.1-52.1,29.7-78.3c18.1-49,36.4-98.4,50.5-148.7c2.6-9.2,4.3-18.5,6.3-27.8c1.1-4.6,1.6-9.9,3.3-14.2
	c1.3-2.6,3-5,5.3-6.9c5.9-5.6,9.3-13.3,9.6-21.5C347.3,438.8,340.3,438.8,340,443.4L340,443.4z"/><path d="M309.2,558.5c9.2-16.5,27.8-26.2,42.5-37.1c7.6-5.6,14.6-11.9,22.8-16.9c8.2-5,18.4-10,27.2-15.6c4-2.4,0.4-8.6-3.6-6.2
	c-9.3,5.7-19.2,10.6-28.5,16.3c-9.3,5.7-15.6,11.9-23.7,17.8c-15.1,10.9-33.4,21.2-42.9,38C300.9,558.9,307,562.5,309.2,558.5
	L309.2,558.5z"/><path d="M659.3,426.6c16.2,2.6,32.8,1.6,49.2,1.4c23.4-0.3,47-0.3,70.3,2.7c40.2,5.3,78,21.2,103.5,53.5c22.2,28,41,57.1,54.6,90.1
	c29.4,70.7,39.9,148.1,45.3,224c2.9,43.3,9.6,86.2,19.8,128.4c7.7,31.4,17.9,62.1,28,92.8c8.6,26.1,16.8,52.5,20.8,79.7
	c4.9,32.4,6.7,65.1,13.5,97.4c3,14.5,7.3,28.8,9.8,43.6c4.4,28.4,7.3,57.7,9.3,86.3c1.4,18.1,1.9,36.3,1.1,54.5
	c-0.9,15.6-2.7,32-8.7,46.6c-3.6,8.7-9.2,17.4-17.8,21.9c-6.3,3.3-13.6,3.6-20.5,3c-9.9-0.9-19.6-3.6-29.1-6.2l-39.9-11.5
	c-38.7-10.6-78.3-17.6-118.3-21.1c-75.4-6.5-151.7-3.2-227.3-1.7c-34.1,0.7-68.3,1.4-102.4,0.4c-21.8-0.6-45.6-0.4-66.5-7.3
	c-2.7-0.9-5.2-2-7.6-3.4c-0.9-0.6-1.6-1.3-2.3-2c-0.4-0.4-0.7-1-1-1.4c-1.4-4.3-8.5-2.4-6.9,1.9s7.6,8.7,12.9,10.8
	c8.3,3.3,17.4,4.6,26.1,5.7c28.5,3.6,57.5,3.4,86,3.4c77-0.3,153.9-4,230.8-2.2c41.6,1,83.2,4.2,124.2,12
	c31.3,6,61.7,15.3,92.4,23.8c16.3,4.4,36,10.2,52.1,2.3c22.9-11,28.3-42.3,30.3-64.8c3.3-35.3-0.3-71.1-4.3-106.3
	c-2.4-22.1-4.3-44.3-9.5-66c-4.4-18.5-8.5-36.9-11.2-55.8c-4.9-34.1-6.9-68.6-15.6-102c-7.5-28.5-17.6-56.2-26.5-84.2
	c-11.3-35.7-20.2-72.3-26.4-109.3c-7.7-48.5-8.9-97.5-15.6-146.1c-5.3-37.7-12.8-75.3-24.1-111.6c-13.2-41.9-32-81.6-58.8-116.6
	l-11.9-15.1c-12-15.2-27.4-27.7-44.7-36.4c-40.6-20.5-86.8-21.7-131.2-21.2c-16.5,0.1-33.4,1.4-49.8-1.1
	C656.7,419,654.7,425.9,659.3,426.6z"/><path d="M840.1,844.2c5.2-8.3,3.9-18.9,1.6-28c-3.2-12.9-9-25.4-15.3-37.1c-15.3-27.8-34-53.6-55.5-77c-8.6-9.3-17.8-18.8-28.7-25.4
	c-4-2.4-7.6,3.7-3.6,6.2c8.9,5.3,16.3,12.9,23.5,20.4c10,10.5,19.4,21.5,28,33.1c17.1,22.8,34.1,47.9,42.9,75.1
	c2.9,8.7,6.2,20.7,1,29.1C831.6,844.5,837.8,848.1,840.1,844.2z"/><path d="M338.4,701.8c10.3,23.7,19.2,48,26.4,72.9c4.9,16.9,8.9,34.1,12.6,51.3c2.4,10.8,4.6,21.7,6.7,32.4c0.9,4.7,1.1,10,3.2,14.5
	c17.1,37.1,34.1,74.3,49.8,112.1c9.6,23.1,19.1,46.5,26.1,70.6c2.2,7.3,4.6,15.2,5,22.7c0.4,7.5-0.4,15.5-0.3,23.2
	c0.1,12.3,1,24.8,1.4,37.3c0.6,19.1-0.4,37.7-4.9,56.4c-2.4,10.5-5.2,20.9-7.9,31.4c-7.2,28-14.3,55.9-20.7,84.2
	c-2.9,13.1-5.7,26.4-7.9,39.6c-2,10.2-3,20.5-3.3,30.8c0.1,7.9,1.4,13.5,7.3,19.1c11.6,11.2,27.8,15.8,43.5,17.8
	c10.2,1.3,20.4,1.7,30.5,1.3c4.6-0.1,4.6-7.3,0-7.2c-18.6,0.4-39.2,0-56.2-8.3c-6-2.9-12-6.9-16.1-12.2c-1-1.9-1.6-3.9-1.6-5.9
	c-0.9-8.9,0.4-18.2,1.7-27c1.9-12.9,4.4-25.7,7.2-38.3c6-28.3,13.2-56.2,20.4-84.2c6.5-25.4,14.2-50.6,15.1-76.9s-2.3-48.6-1.4-72.9
	c0.3-8-0.4-15.9-2.4-23.7c-5.6-22.4-14.3-44.2-22.9-65.7c-16.8-41.9-35.1-83-54.4-123.9c-3.6-7.6-4.2-15.8-5.7-24.1
	c-3.9-19.2-8-38.4-12.8-57.5c-6.6-26.1-15.1-51.8-25.2-76.7c-2.3-5.6-4.6-11.2-7-16.8C342.2,692.6,336.7,697.5,338.4,701.8
	L338.4,701.8z"/><path d="M781.3,899.7c-23.7,0-51.6-3.9-58.5-10.8l5.2-5c6.7,6.7,60.4,12,79.7,6c30-9.2,38.6-19.5,51.3-48
	c24.4-55.1,78.3-205.2,79.3-213.8l2.7,0.3l4.3-1.4c2.2,6.7-61.5,176.7-79.9,217.8c-13.3,30.3-23.4,42.2-55.6,52.1
	C803.4,898.8,792.8,899.7,781.3,899.7z"/><path d="M261.6,316.3c-10,40,30.1,66.5,41,101.1c1.4,4.3,8.3,2.4,6.9-2c-5.3-16.8-16.3-30.5-26.1-45c-9.8-14.5-19.6-33.4-14.9-52.2
	C269.5,313.7,262.6,311.8,261.6,316.3L261.6,316.3z"/><path d="M734.7,1416.1c-3.3-1,106.1-5.4,188.7,25.2c60.5,22.4,117.7,41.7,117.7,41.7s-2.3-29.7-4.9-28.8
	c-2.6,0.9-90.2-21.7-137-30.4S734.7,1416.1,734.7,1416.1z"/><path d="M505.8,1964.5c11.9-15.3,15.8-16.5,38-19.1c22.2-2.6,87.1-11.3,87.1-11.3v2.3l-95.9-10L505.8,1964.5z"/><path d="M623.1,2032.4c0,0-11.6,70.7-3.6,130.8l19.2-1.4C638.8,2161.7,618.5,2108.4,623.1,2032.4z"/><path d="M355.4,739.5c0,0,11.3,57.4,14.9,79.7c4.3,27.2-2.7,54.1-2.7,54.1l21.2-7.5C388.8,865.9,364.7,755.6,355.4,739.5z"/><path d="M1559.6,2244.6c-10.6-5-21.1-10.5-31.7-15.3c-10.6-4.9-19.4-9.3-29.5-12.5c-5-1.6-10-2.3-14.9-4
	c-7.2-2.4-13.6-6.6-18.6-12.3c-12.8-15.2-2.3-36.4-0.6-53.5c0.7-8.6-0.1-17.4-2.9-25.7c-2.9-9.6-7-18.6-12.6-27
	c-4.4-5.7-9.9-10.8-16.2-14.5c-4.9-3.2-10.3-5.6-14.9-9c-0.7-0.4-1.1-1.1-1.9-1.6c-0.7-0.4,0.6,0,0,0.7c-0.6,0.7-0.6,0.1,0.1-0.3
	c0.6-0.4,1.1-0.9,1.7-1.4c3.2-2.4,6.5-4.7,9.9-6.7c20.1-12.6,41.4-24.8,63.4-34c6.5-2.6,12.8-3.6,19.6-1.4
	c13.8,4.4,24.8,17.1,34,27.5c13.8,15.6,27.7,31,42.9,45c10.8,10,22.2,19.4,32.8,29.5c19.9,19.2,37.1,42.3,52.5,65.4
	s28.1,47.6,28.8,75.6c0.3,12.9-3.6,25.4-14.8,32.8c-11.2,7.5-30.1,11-44.2,4.2c-14.1-6.9-22.1-16.5-31.8-26.1
	c-4.6-4.4-9.3-8.6-14.5-12.5c-5.9-3.9-12-7.5-17.9-11.3C1572.4,2251.9,1566.1,2248.1,1559.6,2244.6c-4.2-2-7.7,4.2-3.6,6.2
	c7.3,3.7,14.1,8.6,20.9,13.1c6.9,4.4,12.3,7.3,17.9,11.6c11.5,8.7,20.5,20.2,31.8,29.1c11.3,8.9,25.1,14.3,40,12.3
	s30.8-10,37.6-24.4c5.7-12.2,4.9-26.1,2.6-39.2c-2.3-13.3-6.7-26.1-12.9-38.1c-14.8-28.5-35-54.9-56.2-78.9
	c-8.5-9.2-17.5-17.9-27-26.1c-14.2-12.6-28.1-25.4-41.2-39.2c-13.1-13.8-26.1-31.8-42.6-44c-8.2-6-17.9-10.5-28.3-9.2
	c-10.3,1.3-16.8,5.7-24.5,9.6c-12.2,6-24.2,12.5-36,19.2c-8.9,5-18.6,10-26.4,16.9c-7.7,6.9,2.9,14.1,9,17.6
	c6.2,3.6,12.9,7.5,18.2,12.8s11.3,17.4,14.5,26.5c3.4,9.2,4.4,19.1,3.2,28.7c-1.4,9.6-4.3,19.1-5,28.8s0.7,18.1,6.3,25.2
	c5.2,6.5,11.8,11.6,19.4,14.8c4.7,2.2,9.5,3,14.5,4.3c11,2.7,21.4,7.9,31.6,12.6c10.2,4.7,21.7,10.6,32.6,15.8
	C1560.2,2252.8,1563.8,2246.8,1559.6,2244.6z"/><path d="M1687.7,2283.9c-3.4-27.8-15.3-53.9-30.5-77.4c-8.2-12.6-17.2-24.5-27-35.9c-8-9.3-16.3-18.9-25.5-27
	c-5.4-4.6-11-9-16.3-13.6s-12.8-10.3-17.6-16.5c-8.6-11-16.8-22.4-25.8-33c-7.7-9.3-15.9-18.2-24.5-26.7
	c-7.3-7.2-15.1-14.2-24.1-19.1c-4.2-2.2-7.7,4-3.6,6.2c16.5,8.9,30,24.8,42.2,38.7c10,11.6,19.8,23.7,28.8,36.1
	c3.9,4.9,8.2,9.5,12.9,13.5c6.3,5.6,12.8,10.9,19.2,16.3c17.9,14.6,33.4,33.6,46.9,52.2c18.4,25.5,34,54.6,37.9,86
	C1681.1,2288.5,1688.2,2288.5,1687.7,2283.9L1687.7,2283.9z"/><path fill="#fff" d="M481.7,424c-1.6-5.3-8.6-10.3-14.6-11.8c-22.2-5-42.2-1-54.8,15.1c-3.6,4.3-4.9,10-3.3,15.5
	c1.3,6.2,12,15.8,26.8,6.2c21.9-14.1,26.8-8.3,38.3-13.3C482.1,432,482.7,427.3,481.7,424z"/><path d="M485.2,423.1c-5.3-15.5-26.7-17.4-40.4-16.2s-30.3,8.3-37.4,21.7c-5.2,9-1.9,20.5,7.2,25.7c2.3,1.3,5,2.2,7.6,2.3
	c9,0.7,15.8-5,23.4-9c5-2.7,10.5-4.6,16.2-5.4C471.5,440.6,488.7,436.9,485.2,423.1c-1.1-4.4-8-2.6-6.9,1.9c2,7.5-11.5,9.2-16.5,9.9
	c-10.6,1.4-19.2,5.9-28.3,11.3c-5.2,3.2-11.5,4.7-16.8,1.1c-5.3-3.6-5.3-6.6-4.7-11.2c0.6-4.6,6.6-11.3,11.3-14.6
	c4.9-3.4,10.3-5.7,16.2-6.7c6.9-1.3,13.9-1.4,20.8-0.1c6.5,1,15.5,3.2,17.9,10.3C479.7,429.3,486.6,427.4,485.2,423.1z"/><path d="M220.7,781.4c18.6,29.3,30.1,62.7,33.4,97.2c0.9,8.6,1.1,17.4,0.9,26c-0.1,8,0.1,17.8-2.9,25.2c-3,7.5-11.9,10.2-19.1,7.6
	c-3.7-1.3-7-4.6-9.9-7.2c-8.6-7.5-16.2-16.3-25.1-23.5c-3.6-2.9-8.6,2.2-5,5c8.9,7.3,16.3,16.1,25.1,23.7c3.6,3.2,7.6,6.9,12.2,8.6
	c6.7,2.3,14.2,1.7,20.5-1.9c7.2-4.3,9.3-12.2,10.2-20.1c1.1-9.6,1.4-19.4,1.1-29c-0.6-18.9-3.4-37.7-8.6-55.9
	c-6-20.9-15.1-40.9-26.7-59.4C224.3,773.9,218.1,777.5,220.7,781.4L220.7,781.4z"/><path d="M251,942.6c15.5-5.2,29.3-14.9,42.6-24.1c17.6-11.9,35.3-23.7,54.4-32.8c12.9-6.2,26.4-11.2,40.3-14.8
	c4.4-1.1,2.6-8-1.9-6.9c-23.1,6.2-45.2,15.6-65.5,28.3c-16.6,10-32.3,21.7-48.6,31.8c-7.2,4.7-15.1,8.7-23.2,11.6
	C244.7,937.1,246.5,944,251,942.6z"/><path d="M388.5,217.5c-0.1-1.3-0.1-2.4-0.1-3.7v-1.1c0.1-0.6,0,0.1,0.1-0.1c0-0.6,0.1-1.3,0.3-1.9s0.3-1.1,0.6-1.7
	c0-0.3,0.1-0.7,0.3-1c0.3-0.6,0,0.1,0.1-0.3c0.4-1.1,1.1-2.3,1.9-3.3l1-1.6l0.3-0.3l0.6-0.7c0.9-1,1.9-1.9,2.9-2.7
	c0.4-0.4,0,0,0.3-0.1c0.1-0.3,0.4-0.4,0.7-0.6c0.6-0.4,1.1-0.9,1.9-1.1l1.6-0.9l1.6-0.6c1.9-0.6,2.9-2.6,2.4-4.4
	c-0.4-1.9-2.3-3-4.2-2.4c0,0,0,0-0.1,0c-11.6,4-20.8,15.9-19.2,28.7c0.1,2,1.6,3.4,3.6,3.6C386.6,221.1,388.8,219.3,388.5,217.5z"/><path d="M518.3,245.6c-9.6,3.7-20.8,0.9-30.1-2.2c-11.5-3.9-22.4-9.2-32.4-16.1c-4.3-2.7-8.2-5.9-11.8-9.5
	c-5.6-5.9-10.2-12.6-16.6-17.8c-10.8-8.6-26.1-15.6-39.9-10.6s-19.9,19.9-19.9,33.6l6-2.4c-6.7-7.9-14.9-14.3-24.2-18.8
	c-4.6-1.7-9.8-1.9-14.5-0.1c-7.2,2.6-13.2,7.6-16.9,14.3c-1.3,2.3-2.9,4.4-4.4,6.6c-19.1,25.4-19.8,59.7-14.6,89.5
	c2.3,13.5,5.6,27.1,11.2,39.6c1.9,4.3,8,0.6,6.2-3.6c-0.1-0.1-0.3-0.7,0,0.1c0.3,0.9-0.4-1-0.6-1.6l-2.2-5.7
	c-2.3-6.6-4.2-13.3-5.7-20.2c-4.2-18.8-6.5-38.6-3-57.8c1.9-11.5,5.9-22.5,12-32.4c1.3-2.2,2.7-4,4.3-5.9c3-4,4.7-8.6,8.7-12
	c4-3.4,9.9-5.9,15.2-4.7c5.3,1.1,7.5,3.9,10.5,6c4.9,3.3,9.2,7.3,13.1,11.8c2.2,2.4,6.2,0.4,6.2-2.6c0-12.3,6.3-26.4,19.9-28
	c13.6-1.6,29.3,10.2,38.6,21.2c14.2,16.9,34.3,28.4,55.4,34.7c9.8,3,21.5,5.3,31.6,1.4C524.3,250.9,522.6,244,518.3,245.6
	L518.3,245.6z"/><path d="M321.1,225.1c5.9-8.6,18.2-3.7,25.7-0.7c1.9,0.6,3.9-0.6,4.4-2.4c0,0,0,0,0-0.1c0.4-1.9-0.6-3.7-2.4-4.3
	c-5.9-2.3-11.9-4.6-18.2-4.3c-6.3,0.1-12,3.2-15.6,8.3c-0.9,1.9,0,3.9,1.7,4.7C318.2,226.9,320.1,226.5,321.1,225.1L321.1,225.1z"/><path d="M366.1,176c7-35.6,32-66.7,65.5-80.6c4.3-1.7,2.4-8.6-1.9-6.9c-35.9,14.9-63,47.3-70.6,85.5
	C358.4,178.6,365.3,180.5,366.1,176L366.1,176z"/><path d="M235.5,237.3c-2.2,38.1,16.8,74.3,49.3,94.2c4,2.4,7.6-3.7,3.6-6.2c-30.3-18.6-47.9-52.5-45.7-88.1
	C242.9,232.7,235.8,232.7,235.5,237.3z"/><path d="M1425.5,2206.9c11-2.4,22.5-3.4,33.8-3c4.6,0.1,4.6-6.9,0-7.2c-12-0.4-23.9,0.7-35.7,3.3
	C1419.1,2201,1420.9,2207.9,1425.5,2206.9L1425.5,2206.9z"/><path d="M1399.3,2076.7l3.6-0.7c0.1,0,1.1-0.1,0.3,0h2.6c2.4-0.3,4.9-0.3,7.3-0.3c2,0,3.6-1.6,3.6-3.6s-1.6-3.6-3.6-3.6
	c-5.3,0-10.5,0.4-15.6,1.6c-1.9,0.4-3,2.3-2.4,4.2c0,0,0,0,0,0.1c0.4,1.9,2.4,3,4.3,2.6V2076.7z"/><path d="M632.4,1546.1c0,0,24.4,84.8,24.7,108.3c0.6,56.5-20.5,104.1-20.5,104.1l21.1-39.7c0,0,11.5-74,4.9-96.8
	S632.4,1546.1,632.4,1546.1z"/><path d="M993.1,1989.1c0,0-3.7,59.7,4.4,71.1c8.2,11.5,63.5,16.5,63.5,16.5s-93.1,5.4-89.3-4.4
	C975.5,2062.3,993.1,1989.1,993.1,1989.1z"/><path d="M1405.4,2094.6c0,0,22.7,50.8,28.4,73.4c5.7,22.7,5.6,32.4,5.6,32.4l-19.4,2.2C1420.1,2202.6,1415.9,2137.6,1405.4,2094.6z"/><path d="M316.1,583.3l17.1,58.5c1.1,4.4,8.2,2.6,6.9-1.9L323,581.5C321.7,577,314.8,578.9,316.1,583.3z"/></svg>